<svg id="fi_13286393" enable-background="new 0 0 80 80" viewBox="0 0 80 80" xmlns="http://www.w3.org/2000/svg"><g><path d="m33.08 50.16v21.84c-.47 0-.94-.12-1.35-.36-.02-.01-.03-.02-.06-.03l-18.14-10.73c-1.02-.6-1.65-1.69-1.65-2.87v-21.44z" fill="#bbbdbf"></path><path d="m68.07 28.86v21.41c0 1.19-.63 2.29-1.66 2.9l-31.91 18.45c-.02.01-.03.02-.06.03-.42.23-.89.35-1.36.35v-21.84z" fill="#e6e7e8"></path><path d="m50.32 43.28c-3.36 1.73-6.09 6.67-6.09 11.03s2.73 6.5 6.09 4.77 6.09-6.67 6.09-11.03-2.72-6.5-6.09-4.77z" fill="#f05d4e"></path><path d="m51.82 48.53v-2.71l-3 1.83v2.7l-2.32 1.42v3.48l2.32-1.42v2.71l3.45-2.11v-2.7l1.88-1.14v-3.48z" fill="#fff"></path><path d="m33.08 43.41-22.5-13.95v5.55c0 .77.4 1.49 1.05 1.89l21.45 13.3" fill="#c4302c"></path><path d="m33.08 43.41v6.79l35.23-21.3c.67-.4 1.07-1.13 1.07-1.91v-5.54z" fill="#da443b"></path><path d="m46.31 8.3-35.18 20.21c-.74.43-.75 1.49-.01 1.92l21.97 12.97 35.8-21c.73-.43.73-1.48.01-1.92l-20.34-12.16c-.69-.42-1.55-.43-2.25-.02z" fill="#f05d4e"></path><g><path d="m44.64 21.68 1.85-1.27v5.03l-1.85-1.01z" fill="#bbbdbf"></path><g><path d="m48.34 16.88c-.73-.39-1.62-.34-2.31.13l-10.74 7.32c-.97.67-1.55 1.76-1.55 2.94v7l-2.03-1.5v-6.52c0-1.18.58-2.27 1.55-2.94l10.74-7.32c2.17-.82 3.61.5 4.34.89z" fill="#bbbdbf"></path><path d="m48.34 16.88c-.74-.39-1.62-.34-2.31.14l-10.74 7.32c-.97.66-1.54 1.76-1.54 2.93v7l3.05-2.03v-4.97c0-.17.08-.32.22-.42l9.46-6.45v5.04l3.05-2.03v-4.55c.01-.84-.45-1.6-1.19-1.98z" fill="#e6e7e8"></path></g></g></g></svg>