<svg id="fi_8540840" enable-background="new 0 0 512.073 512.073" height="512" viewBox="0 0 512.073 512.073" width="512" xmlns="http://www.w3.org/2000/svg"><g><g><g><path d="m373.85 396.507 17.149-4.057 5.436-18.52-185.822-185.798-22.585 22.576z" fill="#999"></path><path d="m397.494 380.968 20.717 8.348c3.7 1.47 6.98 3.61 9.7 6.34l35.42 35.41c1.87 1.87 4.25 3.18 6.97 3.85l10.36 2.54c.96.23 1.89.52 2.79.87l-17.734 28.43-32.3 21.584c-.35-.9-.64-1.83-.87-2.79l-2.54-10.36c-.67-2.72-1.98-5.1-3.85-6.97l-35.42-35.41c-2.72-2.72-4.86-6-6.34-9.7l-10.546-26.604z" fill="#f4f4f4"></path><path d="m396.437 373.931 26.61 10.55c3.7 1.47 6.98 3.61 9.7 6.34l35.42 35.41c1.87 1.87 4.25 3.18 6.97 3.85l10.36 2.54c.96.23 1.89.52 2.79.87l-7.076 16.466-15.484 6.094h-.01c-.9-.35-1.82-.64-2.78-.87l-10.36-2.54c-2.72-.67-5.1-1.98-6.97-3.85l-35.42-35.41c-2.72-2.73-6-4.87-9.7-6.34l-26.61-10.55z" fill="#e5eaea"></path><path d="m487.423 438.097c2.9 1.09 6.774 1.127 8.894 3.247l2.682 3.953c3.55 3.55 2.67 10.19-1.97 14.82l-12.201 15.044-25.261 25.249c-4.64 4.64-11.27 5.53-14.82 1.98l-6.47-6.47c-2.12-2.12-3.76-4.68-4.86-7.58l32.306-32.294z" fill="#ffcd5f"></path><path d="m488.287 433.491c2.9 1.09 5.46 2.73 7.58 4.85l6.47 6.47c3.55 3.55 2.67 10.19-1.97 14.82l-15.54 15.53-19.11-19.11z" fill="#feba48"></path><path d="m278.502 278.017-.565.565c-15.339 15.339-40.208 15.339-55.547 0l-2.83-2.83 56.112-56.112 2.83 2.83c15.339 15.34 15.339 40.209 0 55.547z" fill="#f4f4f4"></path><path d="m107.477 29.646c43.266-.011 93.428 21.063 124.808 52.432 46.527 46.506 49.32 113.893 6.491 156.754-19.506 19.528-45.376 30.283-72.834 30.293-30.4.011-60.182-13.015-83.856-36.678-25.028-25.017-43.798-62.058-50.194-99.066-6.193-35.815.234-66.343 17.63-83.76 16.491-16.5 40.612-19.964 57.955-19.975z" fill="#f4f4f4"></path><path d="m49.527 49.621c-17.4 17.42-23.83 47.95-17.63 83.76 6.39 37.01 25.16 74.05 50.19 99.07 23.67 23.66 53.46 36.69 83.86 36.67 27.45-.01 53.32-10.76 72.83-30.29 42.83-42.86 40.04-110.25-6.49-156.75-31.38-31.37-81.54-52.45-124.81-52.43-17.34.01-41.46 3.47-57.95 19.97zm164.91 49.35c18.88 18.88 29.29 42.38 29.29 66.17 0 21.07-8.03 40.24-23.21 55.44-14.9 14.91-34.65 23.13-55.61 23.14-23.71.01-47.13-10.34-65.93-29.14-20.96-20.95-36.69-52.08-42.08-83.28-1.26-7.28-1.9-14.36-1.9-21.03 0-18.25 4.77-33.08 13.43-41.76 11.11-11.11 28.78-13.45 41.64-13.46 35.57-.01 78.49 18.05 104.37 43.92z" fill="#e5eaea"></path><path d="m35.8 35.557c-3.512 3.515-6.675 7.205-10.403 10.734-37.369 53.733-12.35 149.528 40.01 201.86 52.32 52.311 126.885 56.147 177.634 15.865 3.831-3.041 6.537-7.129 10.077-10.671 50.42-50.47 41.609-120.126-14.671-176.376-56.27-56.26-152.227-91.882-202.647-41.412zm191.357 50.684c43.65 43.63 46.27 106.85 6.09 147.06-18.3 18.32-42.57 28.41-68.33 28.42-28.52.01-56.46-12.21-78.67-34.41-23.48-23.47-41.09-58.22-47.09-92.94-5.81-33.6.22-62.24 16.54-78.58 15.47-15.48 38.1-18.73 54.37-18.74 40.59-.01 87.65 19.76 117.09 49.19z" fill="#ffcd5f"></path><path d="m247.997 65.391c56.28 56.25 56.53 138.28 6.11 188.75-3.54 3.54-7.24 6.84-11.07 9.87 39.6-49.87 36.58-122.75-13.13-174.92-1.479-1.575-3.69-3.861-7-6.92-53.11-49.51-145.22-72.22-197.51-35.88 2.79-4.02 5.94-7.81 9.45-11.33 50.42-50.47 156.88-25.83 213.15 30.43z" fill="#feba48"></path></g><path d="m256.32 336.287c17.193 0 31.13 13.937 31.13 31.13v27.521h-62.26v-27.521c0-17.193 13.937-31.13 31.13-31.13z" fill="#f4f4f4"></path><path d="m115.583 373.901 4.057 17.149 18.52 5.436 185.798-185.823-22.576-22.584z" fill="#999"></path><path d="m131.122 397.544-8.348 20.717c-1.47 3.7-3.61 6.98-6.34 9.7l-35.41 35.42c-1.87 1.87-3.18 4.25-3.85 6.97l-2.54 10.36c-.23.96-.52 1.89-.87 2.79l-28.43-17.734-21.584-32.3c.9-.35 1.83-.64 2.79-.87l10.36-2.54c2.72-.67 5.1-1.98 6.97-3.85l35.41-35.42c2.72-2.72 6-4.86 9.7-6.34l26.604-10.546z" fill="#f4f4f4"></path><path d="m138.159 396.487-10.55 26.61c-1.47 3.7-3.61 6.98-6.34 9.7l-35.41 35.42c-1.87 1.87-3.18 4.25-3.85 6.97l-2.54 10.36c-.23.96-.52 1.89-.87 2.79l-16.466-7.076-6.094-15.484v-.01c.35-.9.64-1.82.87-2.78l2.54-10.36c.67-2.72 1.98-5.1 3.85-6.97l35.41-35.42c2.73-2.72 4.87-6 6.34-9.7l10.55-26.61z" fill="#e5eaea"></path><path d="m73.993 487.473c-1.09 2.9-1.127 6.774-3.247 8.894l-3.953 2.682c-3.55 3.55-10.19 2.67-14.82-1.97l-15.044-12.201-25.249-25.261c-4.64-4.64-5.53-11.27-1.98-14.82l6.47-6.47c2.12-2.12 4.68-3.76 7.58-4.86l32.294 32.306z" fill="#fe819c"></path><path d="m78.599 488.337c-1.09 2.9-2.73 5.46-4.85 7.58l-6.47 6.47c-3.55 3.55-10.19 2.67-14.82-1.97l-15.53-15.54 19.11-19.11z" fill="#fc7085"></path><path d="m234.072 278.552-.565-.565c-15.339-15.339-15.339-40.208 0-55.547l2.83-2.83 56.112 56.112-2.83 2.83c-15.339 15.339-40.208 15.339-55.547 0z" fill="#f4f4f4"></path><path d="m482.444 107.527c.011 43.266-21.063 93.428-52.432 124.808-46.506 46.527-113.893 49.32-156.754 6.491-19.528-19.506-30.283-45.376-30.293-72.834-.011-30.4 13.015-60.182 36.678-83.856 25.017-25.028 62.058-43.798 99.066-50.194 35.815-6.193 66.343.234 83.76 17.63 16.5 16.491 19.964 40.613 19.975 57.955z" fill="#f4f4f4"></path><path d="m462.469 49.577c-17.42-17.4-47.95-23.83-83.76-17.63-37.01 6.39-74.05 25.16-99.07 50.19-23.66 23.67-36.69 53.46-36.67 83.86.01 27.45 10.76 53.32 30.29 72.83 42.86 42.83 110.25 40.04 156.75-6.49 31.37-31.38 52.45-81.54 52.43-124.81-.01-17.34-3.47-41.46-19.97-57.95zm-49.35 164.91c-18.88 18.88-42.38 29.29-66.17 29.29-21.07 0-40.24-8.03-55.44-23.21-14.91-14.9-23.13-34.65-23.14-55.61-.01-23.71 10.34-47.13 29.14-65.93 20.95-20.96 52.08-36.69 83.28-42.08 7.28-1.26 14.36-1.9 21.03-1.9 18.25 0 33.08 4.77 41.76 13.43 11.11 11.11 13.45 28.78 13.46 41.64.01 35.57-18.05 78.49-43.92 104.37z" fill="#e5eaea"></path><path d="m476.533 35.85c-3.515-3.512-7.205-6.675-10.734-10.403-53.733-37.369-149.528-12.35-201.86 40.01-52.311 52.32-56.147 126.885-15.865 177.634 3.041 3.831 7.129 6.537 10.671 10.077 50.47 50.42 120.126 41.609 176.376-14.671 56.26-56.27 91.882-152.226 41.412-202.647zm-50.684 191.357c-43.63 43.65-106.85 46.27-147.06 6.09-18.32-18.3-28.41-42.57-28.42-68.33-.01-28.52 12.21-56.46 34.41-78.67 23.47-23.48 58.22-41.09 92.94-47.09 33.6-5.81 62.24.22 78.58 16.54 15.48 15.47 18.73 38.1 18.74 54.37.01 40.59-19.76 87.65-49.19 117.09z" fill="#fe819c"></path><path d="m446.699 248.047c-56.25 56.28-138.28 56.53-188.75 6.11-3.54-3.54-6.84-7.24-9.87-11.07 49.87 39.6 122.75 36.58 174.92-13.13 1.575-1.479 3.861-3.69 6.92-7 49.51-53.11 72.22-145.22 35.88-197.51 4.02 2.79 7.81 5.94 11.33 9.45 50.47 50.42 25.83 156.88-30.43 213.15z" fill="#fc7085"></path></g><g><path d="m501.55 433.327c-6.754-6.755-15.702-11.058-25.194-12.115-6.123-.683-11.893-3.457-16.249-7.812l-11.38-11.381c-2.929-2.929-7.678-2.93-10.606-.001-2.929 2.929-2.929 7.678 0 10.606l11.38 11.382c5.889 5.889 13.447 9.913 21.581 11.549l-35.579 35.566c-1.638-8.127-5.66-15.68-11.546-21.565l-25.786-25.786c-4.443-4.442-7.794-9.957-9.69-15.947l-3.451-10.9 11.829-11.829 10.898 3.443c2.017.638 3.994 1.442 5.876 2.393 3.698 1.867 8.209.383 10.075-3.315 1.867-3.698.382-8.209-3.315-10.075-2.6-1.312-5.33-2.424-8.115-3.305l-13.494-4.263-72.535-72.526c44.77 7.003 91.796-9.557 125.685-43.774 28.701-28.712 50.157-70.935 57.396-112.945 7.98-46.319-1.583-85.774-26.931-111.099-17.26-17.244-41.644-27.353-70.515-29.234-26.106-1.699-54.708 3.243-82.711 14.299-3.853 1.521-5.743 5.877-4.222 9.729 1.521 3.854 5.88 5.745 9.73 4.222 54.65-21.573 108.47-17.022 137.116 11.596 21.8 21.78 29.88 56.562 22.75 97.94-6.732 39.073-26.628 78.283-53.222 104.887-52.557 52.579-129.247 55.206-178.39 6.109-23.242-23.221-35.63-54.046-34.883-86.799.763-33.425 15.279-65.936 40.875-91.541 10.119-10.123 22.038-19.307 35.428-27.298 3.557-2.123 4.719-6.728 2.597-10.284-2.124-3.557-6.727-4.72-10.284-2.597-14.977 9.009-28.822 19.622-40.671 31.949-28.493-29.79-72.345-52.466-115.321-59.847-46.319-7.981-85.775 1.582-111.098 26.929-24.132 24.155-33.988 61.594-27.752 105.42 5.699 40.047 24.094 80.229 50.47 110.244 1.482 1.687 3.554 2.549 5.637 2.549 1.758 0 3.523-.614 4.948-1.866 3.111-2.734 3.417-7.473.683-10.585-48.235-54.89-68.479-150.014-23.375-195.16 21.78-21.801 56.561-29.879 97.94-22.75 40.361 7.008 80.871 27.859 107.941 56.372-3.108 3.886-6.013 7.881-8.705 11.973-30.196-33.361-82.738-56.386-127.161-56.302-17.706.007-42.444 3.649-59.747 20.967-18.086 18.104-24.882 49.179-18.646 85.254 6.265 36.237 24.67 72.532 49.235 97.091 23.651 23.641 53.497 36.658 84.051 36.656 16.232.092 34.732-4.366 49.472-12.5.441 3.186 1.198 6.296 2.269 9.289l-10.313 10.314c-38.052 14.253-83.136 7.453-118.387-18.575-3.338-2.451-8.034-1.729-10.483 1.61-2.45 3.34-1.729 8.034 1.611 10.483 25.898 18.999 56.078 28.85 86.014 28.85 6.842 0 13.671-.516 20.434-1.553l-72.477 72.486-13.5 4.274c-8.273 2.619-15.89 7.247-22.027 13.384l-25.786 25.786c-4.337 4.337-10.077 7.107-16.172 7.805-.025.003-.051.006-.076.009-9.489 1.061-18.432 5.362-25.184 12.113l-5.343 5.344c-3.309 3.308-5.13 7.706-5.13 12.384s1.822 9.076 5.13 12.384l43.502 43.503c3.414 3.414 7.898 5.12 12.383 5.12 4.484 0 8.97-1.707 12.384-5.12l5.341-5.341c6.753-6.754 11.056-15.701 12.114-25.194.682-6.122 3.457-11.893 7.813-16.249l25.772-25.772c6.144-6.144 10.775-13.771 13.393-22.057l4.264-13.495 20.935-20.939c2.929-2.929 2.928-7.678-.001-10.606-2.929-2.93-7.678-2.929-10.606.001l-16.927 16.93-7.666-7.665 96.634-96.645c1.379 1.521 2.368 3.16 7.665 7.666l-54.958 54.964c-2.929 2.929-2.928 7.678.001 10.606 1.464 1.464 3.383 2.196 5.303 2.196s3.839-.732 5.304-2.197l57.913-57.92c5.007 1.794 10.34 2.73 15.817 2.73 2.349 0 4.672-.172 6.954-.511l101.421 101.409 4.274 13.5c2.619 8.273 7.247 15.89 13.384 22.027l25.786 25.786c4.354 4.354 7.129 10.122 7.813 16.246 1.06 9.488 5.361 18.433 12.113 25.184l5.345 5.346c3.414 3.414 7.898 5.121 12.383 5.12 4.484 0 8.97-1.707 12.384-5.12l43.502-43.503c3.308-3.308 5.129-7.706 5.129-12.384s-1.822-9.076-5.129-12.384zm-438.737 63.004c-.979.98-2.575.98-3.555 0l-43.502-43.503c-.64-.641-.736-1.388-.736-1.776s.096-1.136.737-1.777l5.343-5.344c1.185-1.185 2.481-2.24 3.854-3.181l46.377 46.393c-.939 1.37-1.994 2.665-3.177 3.848zm60.738-88.526c-1.896 5.999-5.249 11.521-9.697 15.969l-25.773 25.773c-5.89 5.891-9.913 13.449-11.548 21.581l-35.567-35.579c8.128-1.637 15.68-5.66 21.566-11.545l25.786-25.786c4.443-4.443 9.958-7.794 15.948-9.69l10.9-3.451 11.829 11.829zm92.035-168.964c-3.125 2.159-6.359 4.108-9.693 5.833l-27.239-27.228 35.412-35.449c1.677 13.436 5.361 26.402 10.919 38.564-4.496 5.368-7.685 11.591-9.399 18.28zm-160.745-75.335 24.304-24.322 33.841 33.828-34.286 34.319c-9.788-12.957-17.956-27.988-23.859-43.825zm-8.249-30.257c-1.747-10.104-2.368-19.686-1.923-28.527l23.863 23.853-18.82 18.841c-1.252-4.702-2.301-9.434-3.12-14.167zm43.155-4.676 35.869-35.896 33.835 33.822-35.864 35.901zm117.451-49.87-37.145 37.183-33.834-33.821 27.176-27.197c15.697 5.863 30.767 14.006 43.803 23.835zm-37.138 58.4 33.849 33.836-35.864 35.901-33.85-33.837zm43.105 21.879-32.504-32.491 38.085-38.124c2.665 2.436 6.99 6.822 10.625 11.147-9.704 18.665-15.277 38.861-16.206 59.468zm-102.956-114.399h.037c11.986 0 24.563 1.811 37.053 5.138l-21.703 21.726-26.324-26.314c3.843-.395 7.54-.549 10.937-.55zm-49.14 16.568c5.927-5.933 13.156-9.832 20.656-12.349l33.271 33.258-35.863 35.902-31.703-31.69c2.712-10.209 7.293-18.769 13.639-25.121zm27.302 157.724 35.223-35.259 33.85 33.837-29.476 29.507c-13.088-5.466-25.424-13.787-36.316-24.675-1.109-1.108-2.2-2.25-3.281-3.41zm76.755 35.675c-5.535.022-14.004-.769-21.118-2.422l24.045-24.07 22.736 22.727c-8.238 2.476-16.855 3.763-25.663 3.765zm73.935 19.093c-5.521-5.145-10.054-14.269-9.947-23.109 0-5.371 1.327-10.536 3.83-15.137 5.425 8.73 11.905 16.911 19.39 24.388 7.469 7.462 15.639 13.919 24.354 19.33-4.599 2.503-9.774 3.836-15.156 3.836-8.489 0-16.469-3.306-22.471-9.308zm52.457 13.423c1.815.829 3.648 1.616 5.498 2.361l87.152 87.141-7.666 7.665-92.202-92.192c2.537-1.418 4.953-3.078 7.218-4.975zm204.766 165.761-43.502 43.503c-.979.98-2.575.979-3.554.001l-5.345-5.346c-1.185-1.185-2.24-2.481-3.181-3.853l46.393-46.376c1.37.94 2.665 1.995 3.848 3.178l5.341 5.341c.64.64.736 1.388.736 1.776s-.096 1.136-.736 1.776z"></path><path d="m242.536 165.178c.009 27.8 10.896 53.983 30.657 73.727 20.598 20.579 46.751 30.771 73.552 30.77 29.523-.003 59.83-12.378 84.313-36.871 30.785-30.797 51.459-80.047 51.445-122.553-.006-17.705-3.648-42.443-20.966-59.745-18.106-18.087-49.182-24.884-85.254-18.646-36.238 6.265-72.534 24.67-97.091 49.236-23.647 23.658-36.665 53.519-36.656 84.082zm50.677-76.759 35.258 35.223-33.838 33.851-29.507-29.476c5.466-13.088 13.788-25.424 24.675-36.316 1.109-1.11 2.251-2.201 3.412-3.282zm55.368-33.53 24.308 24.318-33.813 33.826-34.32-34.285c12.957-9.788 27.988-17.957 43.825-23.859zm118.922 55.368c.004 11.998-1.807 24.588-5.137 37.091l-21.727-21.703 26.314-26.324c.395 3.842.549 7.539.55 10.936zm-10.321 53.281c-5.86 15.663-13.989 30.699-23.799 43.708l-37.182-37.146 33.772-33.785zm-71.594-4.039-35.901-35.864 33.805-33.818 35.875 35.89zm-10.604 10.608-33.837 33.85-35.901-35.864 33.838-33.851zm-117.448-4.933c-.002-7.104.824-14.174 2.422-21.12l24.071 24.045-22.728 22.737c-2.473-8.225-3.762-16.848-3.765-25.662zm9.89 40.754 27.216-27.226 35.901 35.864-28.105 28.116c-6.629-3.852-12.893-8.644-18.642-14.388-6.685-6.679-12.162-14.225-16.37-22.366zm49.494 43.484 24.236-24.245 26.926 26.898c-17.273 4.012-34.915 3.156-51.162-2.653zm67.193-2.534-32.353-32.319 33.837-33.85 38.124 38.085c-1.077 1.157-2.164 2.299-3.27 3.405-11.044 11.047-23.421 19.281-36.338 24.679zm79.171-165.106-33.258 33.271-35.901-35.863 31.677-31.69c10.21 2.712 18.782 7.281 25.134 13.626 5.932 5.928 9.831 13.157 12.348 20.656zm-84.445-35.132c8.021-1.387 15.712-2.068 22.968-2.068 1.884 0 3.727.062 5.549.154l-23.844 23.853-18.841-18.82c4.702-1.251 9.434-2.3 14.168-3.119z"></path><path d="m288.429 393.403v-21.866c0-16.798-13.666-30.464-30.464-30.464h-3.29c-16.798 0-30.464 13.666-30.464 30.464v21.869l-38.242 89.65c-1.282 3.005-.471 6.494 2.005 8.626l21.159 18.218c1.407 1.211 3.15 1.816 4.894 1.816 1.743 0 3.487-.605 4.894-1.816l16.267-14.005 16.266 14.005c2.812 2.421 6.973 2.422 9.787 0l16.268-14.005 16.27 14.006c2.812 2.42 6.974 2.42 9.786 0l21.164-18.218c2.478-2.133 3.288-5.625 2.004-8.631zm-32.078 40.609c-11.297 0-22.306-1.087-31.832-3.099l12.146-28.475h39.312l12.169 28.482c-9.518 2.007-20.521 3.092-31.795 3.092zm-17.14-62.475c0-8.526 6.937-15.464 15.464-15.464h3.29c8.527 0 15.464 6.938 15.464 15.464v15.901h-34.218zm-25.184 122.783-12.108-10.425 16.616-38.953c5.237 1.231 10.896 2.2 16.813 2.882l-6.994 34.161zm42.32 0-12.928-11.131 7.016-34.269c1.963.061 3.937.093 5.916.093 1.985 0 3.956-.03 5.909-.089l7.016 34.265zm42.324 0-14.33-12.335-6.99-34.14c5.9-.677 11.529-1.646 16.792-2.89l16.637 38.941z"></path></g></g></svg>