<svg id="fi_10844581" enable-background="new 0 0 68 68" viewBox="0 0 68 68" xmlns="http://www.w3.org/2000/svg"><g><g><g><g><path d="m26.43 58.7-3.01 3.01c-4.73 4.73-12.4 4.73-17.13 0-4.73-4.73-4.73-12.4 0-17.13l3.01-3.01z" fill="#e5e8f9"></path></g></g></g><g><g><g><path d="m26.43 58.7-3 3c-4.73 4.73-12.4 4.73-17.12.01l-.02-.01c-1.5-1.5-2.52-3.29-3.07-5.2.13.14.27.28.41.42 4.73 4.73 12.4 4.73 17.12.01l1.95-1.95z" fill="#d6dbf2"></path></g></g></g><g><g><g><path d="m14.86 66c-3.29 0-6.59-1.25-9.09-3.76-5.01-5.01-5.01-13.17 0-18.19l3.01-3.01c.29-.29.77-.29 1.06 0l17.13 17.13c.29.29.29.77 0 1.06l-3.01 3.01c-2.51 2.5-5.81 3.76-9.1 3.76zm-5.56-23.37-2.48 2.48c-4.43 4.43-4.43 11.64 0 16.07s11.64 4.43 16.07 0l2.48-2.48z" fill="#1a1d1f"></path></g></g></g><g><g><g><path d="m8.07 57.7c-.13 0-.25-.06-.32-.18-1.59-2.57-1.66-5.8-.19-8.44.1-.18.33-.25.51-.14.18.1.25.33.15.51-1.34 2.4-1.27 5.34.17 7.68.11.18.05.41-.12.52-.07.03-.13.05-.2.05z" fill="#fff"></path></g></g></g><g><g><g><path d="m34.9 10.26-18.1 30.67-3.43-3.43 12.62-31.61c1.33-3.32 5.61-4.2 8.14-1.67 1.6 1.6 1.92 4.09.77 6.04z" fill="#d6dbf2"></path></g></g></g><g><g><g><path d="m16.79 40.93-3.42-3.43 2.4-6.01 4.14 4.15z" fill="#c5ceea"></path></g></g></g><g><g><g><path d="m41.98 18.5-21.76 25.86-3.43-3.43 16.8-28.46c1.65-2.8 5.5-3.29 7.8-.99l.3.3c1.83 1.82 1.96 4.75.29 6.72z" fill="#e5e8f9"></path></g></g></g><g><g><g><path d="m48.84 26.57-25.2 21.21-3.43-3.43 21.21-25.2c1.88-2.23 5.26-2.38 7.33-.31l.4.4c2.07 2.06 1.93 5.45-.31 7.33z" fill="#d6dbf2"></path></g></g></g><g><g><g><path d="m28.93 43.33-5.28 4.45-3.42-3.42 3.85-4.57.6.6c1.24 1.25 2.69 2.24 4.25 2.94z" fill="#c5ceea"></path></g></g></g><g><g><g><path d="m49.08 26.36c-.08.07-.15.15-.24.21l-20.89 17.41z" fill="#a9dcea"></path></g></g></g><g><g><g><path d="m55.53 34.41-28.46 16.8-3.43-3.43 25.86-21.76c1.98-1.66 4.9-1.54 6.72.29l.3.3c2.3 2.29 1.81 6.14-.99 7.8z" fill="#e5e8f9"></path></g></g></g><g><g><g><path d="m62.11 42.01-31.62 12.62-3.43-3.43 30.67-18.1c1.96-1.15 4.44-.84 6.05.77 2.54 2.53 1.65 6.82-1.67 8.14z" fill="#d6dbf2"></path></g></g></g><g><g><g><path d="m65.25 37.38c0 1.93-1.11 3.83-3.13 4.64l-31.62 12.62-3.43-3.43 12.81-7.56c.08-.02.16-.05.24-.09l22.85-9.11c.32-.13.62-.29.9-.47-.02-.04-.05-.07-.08-.1.99.99 1.46 2.25 1.46 3.5z" fill="#c5ceea"></path></g></g></g><g><g><g><path d="m20.22 44.36-3.43-3.43 3.12-5.29 4.16 4.15z" fill="#d6dbf2"></path></g></g></g><g><g><g><path d="m39.88 43.64-12.81 7.56-3.42-3.42 5.28-4.45c3.41 1.53 7.34 1.7 10.95.31z" fill="#d6dbf2"></path></g></g></g><g><g><g><path d="m16.79 41.68c-.2 0-.39-.08-.53-.22l-3.43-3.42c-.21-.21-.28-.53-.17-.81l12.63-31.62c.72-1.79 2.27-3.1 4.17-3.49 1.89-.39 3.84.19 5.2 1.56 1.85 1.85 2.21 4.71.88 6.96l-18.1 30.67c-.12.2-.32.33-.55.36-.03.01-.07.01-.1.01zm-2.54-4.35 2.39 2.39 17.61-29.84c.98-1.66.71-3.77-.65-5.14-1.01-1.01-2.45-1.44-3.84-1.15-1.4.29-2.55 1.25-3.07 2.57z" fill="#1a1d1f"></path></g></g></g><g><g><g><path d="m23.23 19.57c-.06 0-.12-.01-.17-.04-.18-.1-.25-.32-.16-.51l4.07-7.76c.1-.18.32-.25.51-.16.18.1.25.32.16.51l-4.07 7.76c-.08.12-.21.2-.34.2z" fill="#fff"></path></g></g></g><g><g><g><path d="m20.22 45.11c-.2 0-.39-.08-.53-.22l-3.43-3.43c-.24-.24-.29-.62-.12-.91l16.8-28.46c.91-1.54 2.44-2.55 4.21-2.77 1.76-.23 3.51.37 4.77 1.63l.3.3c2.12 2.12 2.26 5.45.33 7.74l-21.76 25.85c-.14.16-.33.26-.54.27-.01 0-.02 0-.03 0zm-2.49-4.3 2.44 2.44 21.24-25.23c1.42-1.69 1.32-4.15-.24-5.71l-.3-.3c-.93-.93-2.21-1.38-3.52-1.2-1.31.17-2.44.91-3.11 2.04z" fill="#1a1d1f"></path></g></g></g><g><g><g><path d="m23.64 48.53c-.19 0-.38-.07-.53-.22l-3.43-3.43c-.28-.28-.29-.72-.04-1.01l21.21-25.2c1.03-1.22 2.54-1.96 4.13-2.03 1.6-.06 3.16.54 4.3 1.67l.4.4c1.13 1.13 1.74 2.7 1.67 4.29-.07 1.6-.81 3.11-2.03 4.14l-25.2 21.21c-.13.12-.31.18-.48.18zm-2.4-4.22 2.45 2.45 24.67-20.77c.92-.77 1.45-1.85 1.5-3.05s-.39-2.32-1.23-3.17l-.4-.4c-.85-.85-1.97-1.28-3.17-1.23s-2.28.58-3.05 1.5z" fill="#1a1d1f"></path></g></g></g><g><g><g><path d="m27.07 51.96c-.19 0-.39-.08-.53-.22l-3.43-3.43c-.15-.15-.23-.35-.22-.56s.11-.41.27-.54l25.85-21.77c2.29-1.93 5.62-1.79 7.74.33l.3.3c1.26 1.26 1.86 3 1.63 4.77-.22 1.77-1.23 3.3-2.77 4.21l-28.46 16.8c-.12.07-.25.11-.38.11zm-2.32-4.13 2.44 2.44 27.96-16.5c1.13-.67 1.88-1.8 2.04-3.11.17-1.31-.27-2.59-1.2-3.52l-.3-.3c-1.56-1.56-4.02-1.67-5.71-.24z" fill="#1a1d1f"></path></g></g></g><g><g><g><path d="m30.49 55.38c-.2 0-.39-.08-.53-.22l-3.43-3.43c-.16-.16-.24-.39-.21-.63.03-.23.16-.43.36-.55l30.67-18.1c2.25-1.33 5.11-.97 6.96.88 1.37 1.37 1.95 3.31 1.56 5.2s-1.69 3.45-3.49 4.16l-31.61 12.64c-.09.04-.18.05-.28.05zm-2.21-4.02 2.39 2.39 31.16-12.44c1.32-.53 2.29-1.68 2.57-3.07.29-1.4-.14-2.83-1.15-3.84-1.36-1.36-3.48-1.63-5.14-.65z" fill="#1a1d1f"></path></g></g></g><g><g><g><path d="m18.3 35.46h4.26v24.22h-4.26z" fill="#666" transform="matrix(.707 -.707 .707 .707 -27.657 28.378)"></path></g></g></g><g><g><g><path d="m25 51.64h4.26v5.26h-4.26z" fill="#595857" transform="matrix(.707 -.707 .707 .707 -30.434 35.08)"></path></g></g></g><g><g><g><path d="m27.49 58.39c-.19 0-.38-.07-.53-.22l-17.13-17.12c-.29-.29-.29-.77 0-1.06l3.01-3.01c.29-.29.77-.29 1.06 0l17.12 17.12c.29.29.29.77 0 1.06l-3.01 3.01c-.14.15-.33.22-.52.22zm-16.07-17.87 16.07 16.07 1.95-1.95-16.07-16.07z" fill="#1a1d1f"></path></g></g></g><g><g><g><path d="m15.29 38.47h4.26v24.22h-4.26z" fill="#ff4848" transform="matrix(.707 -.707 .707 .707 -30.666 27.131)"></path></g></g></g><g><g><g><path d="m21.99 54.65h4.26v5.26h-4.26z" fill="#f91c1c" transform="matrix(.707 -.707 .707 .707 -33.443 33.834)"></path></g></g></g><g><g><g><path d="m24.48 61.4c-.19 0-.38-.07-.53-.22l-17.13-17.13c-.29-.29-.29-.77 0-1.06l3.01-3.01c.29-.29.77-.29 1.06 0l17.13 17.13c.29.29.29.77 0 1.06l-3.01 3.01c-.15.15-.34.22-.53.22zm-16.07-17.88 16.07 16.07 1.95-1.95-16.07-16.06z" fill="#1a1d1f"></path></g></g></g></g></svg>