<svg id="fi_3850358" enable-background="new 0 0 512.001 512.001" height="512" viewBox="0 0 512.001 512.001" width="512" xmlns="http://www.w3.org/2000/svg"><g><g><g><path d="m68.876 465.362-12.427-4.939c-5.889-2.34-8.766-9.012-6.426-14.901l30.81-77.528c2.34-5.889 9.012-8.766 14.901-6.426l12.427 4.939c5.889 2.34 8.766 9.012 6.426 14.901l-30.81 77.528c-2.341 5.89-9.012 8.767-14.901 6.426z" fill="#5169cd"></path><path d="m99.348 419.754 15.239-38.345c2.34-5.889-.536-12.561-6.426-14.901l-12.427-4.939c-5.889-2.34-12.561.537-14.901 6.426l-15.239 38.345z" fill="#3351c5"></path><path d="m108.02 397.933 6.567-16.525c2.34-5.889-.536-12.561-6.426-14.901l-12.427-4.939c-5.889-2.34-12.561.537-14.901 6.426l-6.567 16.525z" fill="#fddd45"></path><g><path d="m248.371 211.79c-20.272 51.011-65.689 68.498-106.668 52.213s-62.005-60.177-41.733-111.188 74.164-89.825 115.144-73.54 53.529 81.503 33.257 132.515z" fill="#a99fa9"></path></g><g><path d="m248.367 211.788c-20.273 51.014-65.686 68.503-106.666 52.218-4.895-1.945-9.498-4.281-13.783-6.984 36.642 7.252 74.006-11.67 91.859-56.595s10.243-100.871-19.814-124.694c5.187.431 10.257 1.594 15.151 3.539 40.98 16.286 53.526 81.502 33.253 132.516z" fill="#9b8f99"></path></g></g><g><g><path d="m158.862 96.746 3.471 15.338c2.345 10.363-4.155 20.665-14.518 23.01-10.363 2.345-20.665-4.155-23.01-14.518l-3.471-15.338z" fill="#fb4a59"></path><path d="m158.859 96.747 3.471 15.34c2.344 10.359-4.156 20.662-14.515 23.006-3.84.869-7.661.524-11.076-.773 4.307-4.503 6.34-11.012 4.862-17.542l-3.471-15.34z" fill="#f82f40"></path></g><path d="m144.955 48.364s-7.553-6.398-17.743-7.591c-.489-.057-.993.057-1.41.319-8.683 5.464-12.747 14.49-12.747 14.49-5.458-3.324-12.086-2.71-15.754-1.983-1.428.283-2.17 1.866-1.491 3.154l25.523 48.485 37.528-8.492 2.163-54.75c.057-1.455-1.293-2.564-2.704-2.205-3.623.923-9.87 3.223-13.365 8.573z" fill="#f8f3f1"></path><path d="m161.024 42-2.165 54.746-20.729 4.691 2.227-56.174c2.895 1.652 4.602 3.097 4.602 3.097 3.494-5.348 9.737-7.643 13.362-8.565 1.409-.363 2.757.746 2.703 2.205z" fill="#d7d0d6"></path></g></g><path d="m386.49 112.04h-174.104v-26.257c0-43.234 35.048-78.283 78.283-78.283h17.539c43.234 0 78.283 35.048 78.283 78.283v26.257z" fill="#ba5d4f"></path><g><g><g><g><g><g><g><g><path d="m462.788 504.5h-326.693l15.192-139.519c5.321-48.902 46.621-85.945 95.817-85.945h104.675c49.196 0 90.496 37.044 95.817 85.945z" fill="#fddd45"></path><path d="m249.252 504.5 54.261-54.261c3.6-3.6.145-9.649-4.785-8.377l-93.379 24.098c-4.929 1.272-8.385-4.777-4.785-8.377l69.698-69.706c3.15-3.15.919-8.535-3.536-8.535h-26.827c-4.455 0-6.685-5.386-3.535-8.536l91.78-91.771h23.635c49.196 0 90.496 37.044 95.817 85.945l15.192 139.52z" fill="#3351c5"></path><path d="m462.787 504.5h-32.15l-15.197-139.52c-5.328-48.898-46.622-85.947-95.817-85.947h32.16c49.194 0 90.489 37.049 95.817 85.947z" fill="#2944ae"></path><path d="m202.459 413.781v90.719h-66.364l9.882-90.719z" fill="#fdb0a0"></path><path d="m202.459 437.285v-23.504h-56.482l-2.56 23.504z" fill="#f69583"></path><path d="m462.788 504.5h-66.354v-90.719h56.472z" fill="#fdb0a0"></path><g fill="#f69583"><path d="m455.467 437.285-2.561-23.504h-56.472v23.504z"></path><path d="m420.755 413.777 9.882 90.723h32.15l-9.876-90.723z"></path></g></g><g><path d="m327.186 249.944v33.65c0 15.32-12.421 27.741-27.741 27.741s-27.741-12.421-27.741-27.741v-33.65z" fill="#fdb0a0"></path></g><path d="m327.186 249.944v29.09c-8.594 3.368-17.953 5.205-27.741 5.205s-19.147-1.837-27.741-5.205v-29.09z" fill="#f69583"></path></g></g><g><g fill="#fdb0a0"><circle cx="392.533" cy="145.528" r="28.065"></circle><circle cx="206.35" cy="145.528" r="28.065"></circle></g><g><path d="m299.621 262.124c-43.081 0-78.004-34.924-78.004-78.004v-83.22h156.009v83.22c-.001 43.08-34.924 78.004-78.005 78.004z" fill="#ffcec0"></path><path d="m221.617 100.9h156.009v36.525h-156.009z" fill="#fdb0a0"></path></g></g></g></g><g fill="#6d81d5"><path d="m259.552 278.497-21.675 21.255c-1.811 1.776-2.03 4.618-.512 6.65l28.277 37.867c1.997 2.674 5.989 2.721 8.048.095l25.755-32.845-32.75-32.974c-1.963-1.978-5.154-1.999-7.143-.048z"></path><path d="m339.331 278.497 21.675 21.255c1.811 1.776 2.03 4.618.512 6.65l-28.277 37.867c-1.997 2.674-5.989 2.721-8.048.095l-25.755-32.845 32.75-32.974c1.963-1.978 5.154-1.999 7.143-.048z"></path></g></g><g><path d="m378.501 118.76h-157.76c-5.525 0-10.003-4.479-10.003-10.003v-15.714c0-5.525 4.479-10.003 10.003-10.003h157.76c5.525 0 10.003 4.479 10.003 10.003v15.714c0 5.524-4.479 10.003-10.003 10.003z" fill="#fddd45"></path><g><path d="m388.499 93.045v15.715c0 5.522-4.471 10.003-10.003 10.003h-58.359c5.522 0 10.003-4.481 10.003-10.003v-15.715c0-5.522-4.481-10.003-10.003-10.003h58.359c5.532-.001 10.003 4.481 10.003 10.003z" fill="#f8c52d"></path></g></g></g></g><g><path d="m270.196 61.535s8.721-15.182 31.829-15.182c22.542 0 55.622 17.67 57.228 85.843.07 2.966 2.636 5.263 5.586 4.946 11.447-1.231 36.693-7.575 36.693-39.591l17.557 2.436c3.408.473 6.278-2.509 5.688-5.898-3.747-21.512-22.652-86.589-114.275-86.589z" fill="#ba5d4f"></path><path d="m419.085 99.99-17.554-2.443c0 32.017-25.247 38.361-36.689 39.598-2.949.314-5.524-1.987-5.595-4.946-.081-3.618-.263-7.095-.517-10.439 7.662-4.926 14.371-13.226 15.76-27.213.304-2.98 3.02-5.108 5.98-4.693l11.848 1.642c3.405.476 6.274-2.503 5.686-5.899-2.777-15.912-13.845-55.672-56.523-75.273 65.128 12.72 80.016 64.935 83.3 83.766.588 3.387-2.28 6.366-5.696 5.9z" fill="#a34f41"></path><g><path d="m189.335 195.968-7.021-2.79.842-2.119c1.53-3.849-.351-8.21-4.2-9.739-3.848-1.531-8.209.351-9.739 4.2l-.842 2.119-8.369-3.326.842-2.119c1.53-3.85-.351-8.21-4.2-9.739-3.848-1.531-8.211.351-9.739 4.2l-.842 2.118-5.63-2.237c-3.848-1.532-8.209.351-9.739 4.2s.351 8.21 4.2 9.739l5.63 2.237-2.943 7.406-5.63-2.238c-3.848-1.531-8.209.351-9.739 4.2s.351 8.21 4.2 9.739l5.63 2.237-2.046 5.148c-1.53 3.85.351 8.21 4.2 9.739.908.361 1.846.532 2.768.532 2.982 0 5.804-1.792 6.972-4.732l2.046-5.148 8.369 3.326-5.165 12.998c-1.53 3.849.351 8.21 4.2 9.739.908.361 1.846.532 2.768.532 2.982 0 5.803-1.792 6.972-4.732l7.932-19.959c.001-.003.003-.005.004-.007.001-.004.002-.008.004-.012l5.708-14.364 7.021 2.79c.908.361 1.846.532 2.768.532 2.982 0 5.803-1.792 6.972-4.732 1.526-3.848-.354-8.209-4.204-9.738zm-29.443 13.015-8.369-3.326 2.943-7.406 8.369 3.326z"></path><path d="m470.245 503.688-15.19-139.517c-5.751-52.812-50.148-92.636-103.271-92.636h-9.222c-2.377-1.52-5.158-2.156-7.877-1.919v-7.542c29.706-13.415 50.441-43.299 50.441-77.954v-3.825c2.428.516 4.911.796 7.404.796 19.613 0 35.569-15.952 35.569-35.56 0-14.269-8.361-26.889-21.165-32.529.645-2.213 1.153-4.517 1.501-6.92l9.623 1.335c3.96.55 7.987-.839 10.765-3.715 2.78-2.879 4.029-6.954 3.342-10.899-3.791-21.771-23.769-92.803-121.663-92.803 0 0-19.307 0-19.833 0-41.575 0-76.326 29.733-84.133 69.05-12.369-2.279-25.696-.804-39.244 4.3l1.227-31.062c.119-3.041-1.223-5.999-3.588-7.912-2.359-1.907-5.521-2.6-8.459-1.853-3.172.807-8.204 2.545-12.625 6.089-3.851-2.169-9.321-4.534-15.758-5.288-2.187-.256-4.421.247-6.281 1.419-5.488 3.453-9.408 7.945-11.951 11.561-5.516-1.294-10.806-.698-14.015-.061-2.977.59-5.533 2.577-6.84 5.316-1.311 2.745-1.247 5.992.171 8.687l25.063 47.61 1.025 4.532c-9.316 11.433-17.001 24.42-22.262 37.657-10.408 26.192-11.13 51.85-2.086 74.199 7.695 19.014 22.178 34.285 41.168 43.659l-34.349 86.433c-9.533-3.326-20.109 1.42-23.87 10.888l-30.811 77.528c-3.863 9.724.903 20.777 10.626 24.641l12.427 4.938c2.27.901 4.642 1.352 7.012 1.352 2.551 0 5.098-.521 7.51-1.561 4.654-2.008 8.248-5.707 10.119-10.416l5.872-14.774c1.53-3.85-.351-8.21-4.199-9.74-3.853-1.532-8.211.351-9.74 4.199l-5.872 14.775c-.393.987-1.145 1.762-2.119 2.182-.979.42-2.057.434-3.042.044l-12.428-4.938c-2.036-.81-3.034-3.125-2.226-5.162l21.473-54.033 19.815 7.874-3.456 8.697c-1.53 3.849.351 8.21 4.2 9.739 3.845 1.529 8.208-.352 9.739-4.2l12.793-32.191c1.872-4.71 1.797-9.866-.21-14.521-1.899-4.403-5.324-7.838-9.674-9.782l34.346-86.426c8.555 2.634 17.155 3.939 25.607 3.939 25.51 0 49.644-11.727 66.962-33.466 7.317 7.466 15.989 13.59 25.613 17.989v7.703c-2.719-.236-5.502.4-7.879 1.921h-9.22c-24.544 0-48.385 8.748-67.131 24.634-3.16 2.678-3.551 7.41-.873 10.57 1.483 1.751 3.598 2.651 5.726 2.651 1.713 0 3.436-.584 4.845-1.778 14.317-12.132 32.108-19.381 50.696-20.802l-7.736 7.586c-4.474 4.385-5.02 11.477-1.271 16.493l23.222 31.099-23.517 23.516c-3.588 3.587-4.652 8.934-2.711 13.622s6.475 7.718 11.549 7.718h20.792l-50.731 50.738v-47.739c0-4.143-3.357-7.5-7.5-7.5s-7.5 3.357-7.5 7.5v16.439h-40.626l4.408-40.487c1.349-12.391 5.18-24.114 11.387-34.846 2.074-3.586.849-8.173-2.737-10.247-3.586-2.072-8.174-.849-10.247 2.737-7.259 12.549-11.738 26.253-13.314 40.732l-15.191 139.517c-.448 4.117 2.526 7.819 6.645 8.268.275.03.55.045.82.045 3.778 0 7.029-2.848 7.447-6.689l9.15-84.029h42.26v83.217c0 4.143 3.357 7.5 7.5 7.5s7.5-3.357 7.5-7.5v-31.984l81.772-21.102-47.783 47.782c-2.929 2.93-2.929 7.678 0 10.607 1.465 1.464 3.385 2.196 5.304 2.196s3.839-.732 5.304-2.196l54.26-54.261c4.038-4.037 4.849-10.081 2.017-15.039-2.834-4.959-8.454-7.334-13.978-5.903l-84.51 21.809 63.221-63.229c3.588-3.589 4.65-8.936 2.709-13.622-1.942-4.688-6.476-7.716-11.549-7.716h-20.792l18.992-18.99c1.447.593 3.006.931 4.629.95.052.001.103.001.153.001 3.886 0 7.482-1.748 9.886-4.813l19.849-25.313 19.85 25.314c2.403 3.063 5.998 4.812 9.885 4.812.051 0 .102 0 .152-.001 3.944-.047 7.561-1.886 9.922-5.047l28.277-37.867c3.747-5.019 3.2-12.109-1.271-16.491l-7.737-7.588c23.76 1.779 45.035 12.875 59.983 29.847l-123.014 84.314c-3.417 2.342-4.288 7.01-1.946 10.427 1.454 2.12 3.803 3.261 6.193 3.261 1.461 0 2.938-.427 4.233-1.314l123.466-84.624c6.751 10.945 11.229 23.502 12.707 37.074l4.408 40.487h-40.617v-16.439c0-4.143-3.357-7.5-7.5-7.5s-7.5 3.357-7.5 7.5v114.658c0 4.143 3.357 7.5 7.5 7.5s7.5-3.357 7.5-7.5v-83.219h42.25l9.149 84.029c.418 3.843 3.669 6.689 7.447 6.689.271 0 .545-.015.82-.045 4.116-.447 7.09-4.149 6.642-8.266zm-57.146-358.158c0 11.337-9.228 20.56-20.569 20.56-2.581 0-5.062-.466-7.404-1.376v-25.572c6.218-3.102 11.336-7.368 15.221-12.646 7.693 3.144 12.752 10.59 12.752 19.034zm-192.463-69.986c4.977-34.194 34.48-60.544 70.033-60.544h19.833c80.235 0 100.938 51.483 106.259 77.093l-14.197-1.971c-2.146-.299-4.321.349-5.957 1.772-1.635 1.425-2.574 3.487-2.574 5.656 0 22.378-14.306 29.735-27.362 31.787-1.109-30.959-8.685-54.689-22.529-70.559-15.125-17.337-32.88-19.926-42.116-19.926-14.001 0-23.539 4.941-29.075 9.087-3.315 2.483-3.991 7.184-1.509 10.499 2.483 3.315 7.185 3.99 10.499 1.509 5.4-4.044 12.158-6.095 20.085-6.095 12.78 0 26.185 6.308 35.864 21.686h-56.333c-4.143 0-7.5 3.357-7.5 7.5s3.357 7.5 7.5 7.5h63.443c2.125 6.04 3.828 12.921 4.998 20.721h-129.257c-1.38 0-2.503-1.123-2.503-2.503v-15.713c0-1.381 1.123-2.504 2.503-2.504h27.824c4.143 0 7.5-3.357 7.5-7.5s-3.357-7.5-7.5-7.5zm-6.52 50.936v38.089c-2.446 1.004-5.049 1.52-7.768 1.52-11.337 0-20.56-9.223-20.56-20.56 0-11.343 9.223-20.57 20.56-20.57 2.72.001 5.322.517 7.768 1.521zm-59.098-12.741c1.429 6.313-2.545 12.612-8.857 14.04-3.059.694-6.203.151-8.855-1.521-2.651-1.673-4.493-4.278-5.185-7.337l-1.815-8.023 22.898-5.181zm-45.863-51.752c1.824 1.111 4.044 1.374 6.09.751 2.044-.62 3.735-2.103 4.634-4.041.03-.064 2.829-6.003 8.348-10.172 6.711 1.374 11.765 5.466 11.91 5.585 1.637 1.373 3.783 1.985 5.899 1.675 2.129-.311 4.021-1.52 5.197-3.319.53-.812 1.207-1.516 1.956-2.125l-1.594 40.36-26.306 5.952-18.814-35.74c.939.227 1.853.57 2.68 1.074zm-25.15 318.333 3.798-9.556c.81-2.037 3.123-3.036 5.161-2.226l12.428 4.939c.986.393 1.761 1.145 2.182 2.119.42.975.436 2.056.044 3.042l-3.797 9.555zm60.467-123.287c-39.583-15.731-55.018-57.449-37.532-101.449 3.476-8.747 8.161-17.375 13.735-25.429 2.122 3.522 5.047 6.531 8.626 8.789 4.325 2.729 9.226 4.135 14.217 4.135 1.98 0 3.975-.222 5.953-.669 14.38-3.254 23.431-17.601 20.178-31.981l-3.253-14.375.244-6.165c13.492-6.3 26.605-8.295 38.291-5.851-.011.546-.041 1.086-.041 1.635-1.048 2.244-1.65 4.736-1.65 7.372v15.714c0 .453.034.898.068 1.342-18.188 1.55-32.517 16.844-32.517 35.431 0 19.607 15.952 35.56 35.56 35.56 2.621 0 5.226-.307 7.768-.874v3.903c0 17.73 5.427 34.216 14.704 47.887-20.607 27.993-52.714 37.596-84.351 25.025zm219.841-112.362c1.53-.165 4.353-.448 5.813-.704v40.153c0 38.877-31.628 70.505-70.504 70.505-38.877 0-70.505-31.628-70.505-70.505v-57.86h122.389c.11 1.995.199 4.023.249 6.114.084 3.521 1.647 6.869 4.291 9.188 2.291 2.009 5.245 3.109 8.267 3.109zm-64.692 124.953c6.91 0 13.623-.845 20.063-2.4v13.267l-20.242 20.381-20.242-20.38v-13.351c6.548 1.611 13.383 2.483 20.421 2.483zm-29.872 67.61-25.103-33.617 18.431-18.073 26.379 26.56zm59.385 0-19.706-25.131 26.378-26.56 18.431 18.074z"></path><path d="m260.264 144.768c-4.143 0-7.5 3.357-7.5 7.5v1.92c0 4.143 3.357 7.5 7.5 7.5s7.5-3.357 7.5-7.5v-1.92c0-4.143-3.358-7.5-7.5-7.5z"></path><path d="m338.619 161.688c4.143 0 7.5-3.357 7.5-7.5v-1.92c0-4.143-3.357-7.5-7.5-7.5s-7.5 3.357-7.5 7.5v1.92c0 4.142 3.358 7.5 7.5 7.5z"></path><path d="m290.012 198.051h12.361c4.143 0 7.5-3.357 7.5-7.5s-3.357-7.5-7.5-7.5h-3.876l3.696-29.862c.509-4.11-2.411-7.855-6.522-8.364-4.098-.505-7.854 2.412-8.364 6.522l-4.738 38.283c-.264 2.133.4 4.277 1.824 5.888 1.422 1.61 3.469 2.533 5.619 2.533z"></path><path d="m324.107 223.95c2.812-3.041 2.626-7.786-.415-10.599s-7.786-2.626-10.599.415c-3.565 3.856-8.415 5.979-13.655 5.979-5.241 0-10.091-2.123-13.655-5.979-2.811-3.043-7.556-3.23-10.598-.416-3.042 2.812-3.229 7.557-.416 10.598 6.343 6.861 15.334 10.797 24.669 10.797 9.334.001 18.326-3.933 24.669-10.795z"></path><path d="m364.962 441.796-79.307 56.6c-3.372 2.406-4.154 7.09-1.748 10.461 1.464 2.051 3.77 3.145 6.111 3.145 1.507 0 3.029-.454 4.35-1.396l79.307-56.6c3.372-2.406 4.154-7.09 1.748-10.461s-7.09-4.156-10.461-1.749z"></path><path d="m339.064 428.591c1.461 0 2.938-.427 4.233-1.314l27.782-19.043c3.417-2.342 4.288-7.01 1.946-10.427-2.343-3.416-7.01-4.286-10.427-1.946l-27.782 19.043c-3.417 2.342-4.288 7.01-1.946 10.427 1.455 2.12 3.804 3.26 6.194 3.26z"></path></g></g><path d="m270.222 61.497c.132-.223.791-1.287 2.057-2.757z" fill="#ba5d4f"></path></g></svg>