<svg id="fi_8497193" enable-background="new 0 0 512.096 512.096" height="512" viewBox="0 0 512.096 512.096" width="512" xmlns="http://www.w3.org/2000/svg"><g><g><path d="m7.5 380.292c4.143 0 7.5-3.358 7.5-7.5v-305.115c0-2.233 1.817-4.051 4.051-4.051h347.041c4.143 0 7.5-3.358 7.5-7.5s-3.357-7.5-7.5-7.5h-347.041c-10.505 0-19.051 8.546-19.051 19.051v305.115c0 4.143 3.357 7.5 7.5 7.5z"></path><path d="m493.045 48.626h-92.404c-4.143 0-7.5 3.358-7.5 7.5s3.357 7.5 7.5 7.5h92.404c2.233 0 4.051 1.817 4.051 4.051v376.741c0 2.234-1.817 4.051-4.051 4.051h-473.994c-2.233 0-4.051-1.817-4.051-4.051v-37.143c0-4.142-3.357-7.5-7.5-7.5s-7.5 3.358-7.5 7.5v37.143c0 10.505 8.546 19.051 19.051 19.051h473.994c10.505 0 19.051-8.546 19.051-19.051v-376.741c0-10.505-8.546-19.051-19.051-19.051z"></path><path d="m260.725 137.756c-7.283 2.137-12.177 8.587-12.177 16.051v6.128l-85.406 59.682c-7.642 5.34-10.771 14.537-7.972 23.43s10.632 14.639 19.955 14.639h161.846c9.323 0 17.156-5.746 19.955-14.639 2.8-8.893-.33-18.09-7.972-23.43l-85.406-59.681v-6.128c0-.862.703-1.454 1.398-1.658 14.718-4.316 24.173-18.56 22.482-33.869-1.63-14.749-13.067-26.187-27.816-27.816-8.968-.99-17.948 1.871-24.626 7.853-6.683 5.985-10.516 14.561-10.516 23.528 0 4.142 3.357 7.5 7.5 7.5s7.5-3.358 7.5-7.5c0-4.708 2.013-9.21 5.523-12.354 3.556-3.185 8.158-4.646 12.972-4.117 7.716.853 13.701 6.837 14.553 14.553.892 8.065-4.068 15.562-11.793 17.828zm79.637 94.156c3.303 2.309 2.562 5.659 2.256 6.631s-1.617 4.143-5.647 4.143h-161.846c-4.03 0-5.342-3.171-5.647-4.143-.306-.972-1.047-4.322 2.256-6.63l84.314-58.918z"></path><path d="m322.741 421.338c4.076.734 7.978-1.972 8.713-6.049l3.533-19.576s5.957 20.186 5.987 20.275c1.177 3.498 4.438 5.84 8.126 5.84h.047c3.706-.02 6.964-2.401 8.108-5.926.027-.086 5.774-20.241 5.774-20.241l3.767 19.705c.778 4.07 4.717 6.736 8.774 5.959 4.068-.777 6.736-4.706 5.958-8.774l-8.863-46.379c-.778-3.812-4.034-6.626-7.918-6.845-3.867-.214-7.435 2.212-8.637 5.912-.028.086-.055.173-.08.261l-7.036 24.685-7.305-24.758c-.026-.089-.055-.178-.084-.267-1.24-3.691-4.838-6.087-8.703-5.824-3.884.262-7.109 3.114-7.858 7.019l-8.353 46.273c-.734 4.073 1.974 7.974 6.05 8.71z"></path><path d="m171.123 379.16c0-10.945-9.218-19.849-20.548-19.849 0 0-12.627 0-12.643 0-4.143 0-7.5 3.358-7.5 7.5v47.517c0 4.142 3.357 7.5 7.5 7.5s7.5-3.358 7.5-7.5v-9.317s12.548 14.257 12.561 14.272c2.659 3.022 7.451 3.434 10.585.675 3.109-2.736 3.411-7.476.675-10.585l-10.547-11.984c7.297-3.049 12.417-10.072 12.417-18.229zm-20.548 4.849c-1.226 0-3.125.007-5.08.015-.009-1.88-.016-3.694-.016-4.864 0-1.008-.004-2.871-.009-4.849h5.104c2.955 0 5.548 2.266 5.548 4.849s-2.592 4.849-5.547 4.849z"></path><path d="m208.186 421.828c17.235 0 31.258-14.022 31.258-31.259 0-17.236-14.022-31.258-31.258-31.258s-31.259 14.022-31.259 31.258c0 17.237 14.022 31.259 31.259 31.259zm0-47.517c8.965 0 16.258 7.293 16.258 16.258s-7.293 16.259-16.258 16.259-16.259-7.293-16.259-16.259c0-8.965 7.294-16.258 16.259-16.258z"></path><path d="m278.468 421.828c17.236 0 31.259-14.022 31.259-31.259 0-17.236-14.022-31.258-31.259-31.258-17.235 0-31.258 14.022-31.258 31.258 0 17.237 14.022 31.259 31.258 31.259zm0-47.517c8.965 0 16.259 7.293 16.259 16.258s-7.294 16.259-16.259 16.259-16.258-7.293-16.258-16.259c0-8.965 7.293-16.258 16.258-16.258z"></path><path d="m174.461 332.855h16.405s2.276 6.03 2.279 6.038c1.438 3.811 5.931 5.778 9.665 4.369 3.875-1.462 5.831-5.79 4.368-9.665l-16.502-43.729c-.026-.071-.054-.141-.083-.21-1.318-3.199-4.404-5.265-7.878-5.265-3.464.006-6.549 2.082-7.859 5.289-.022.055-.044.111-.065.167l-16.654 43.727c-1.475 3.871.469 8.204 4.339 9.678 3.87 1.473 8.204-.468 9.679-4.339zm8.24-21.634 2.504 6.634h-5.031z"></path><path d="m253.773 342.888c3.462-1.083 5.698-4.277 5.698-8.21l-.414-42.857c-.04-4.118-3.39-7.428-7.498-7.428-.024 0-.05 0-.074 0-4.143.04-7.468 3.43-7.428 7.572l.2 20.646-17.193-24.897c-1.865-2.702-5.268-3.875-8.404-2.898-3.133.977-5.268 3.878-5.268 7.16v44.269c0 4.142 3.357 7.5 7.5 7.5s7.5-3.358 7.5-7.5v-20.209l16.267 23.555c2.096 3.022 5.76 4.347 9.114 3.297z"></path><path d="m328.61 291.894v44.352c0 4.142 3.357 7.5 7.5 7.5s7.5-3.358 7.5-7.5v-44.352c0-4.142-3.357-7.5-7.5-7.5s-7.5 3.357-7.5 7.5z"></path><path d="m112.669 284.394c-4.143 0-7.5 3.358-7.5 7.5v44.352c0 4.142 3.357 7.5 7.5 7.5s7.5-3.358 7.5-7.5v-15.436h15.692v15.436c0 4.142 3.357 7.5 7.5 7.5s7.5-3.358 7.5-7.5v-44.352c0-4.142-3.357-7.5-7.5-7.5s-7.5 3.358-7.5 7.5v13.916h-15.692v-13.916c0-4.143-3.357-7.5-7.5-7.5z"></path><path d="m321.693 314.069c0-4.142-3.357-7.5-7.5-7.5h-13.268c-4.143 0-7.5 3.358-7.5 7.5s3.357 7.5 7.5 7.5h4.421c-1.425 3.646-4.343 7.176-10.297 7.176-8.092 0-14.676-6.583-14.676-14.676s6.584-14.676 14.676-14.676c2.941 0 5.777.865 8.201 2.502 3.433 2.319 8.094 1.415 10.413-2.017 2.318-3.432 1.416-8.094-2.017-10.413-4.913-3.319-10.652-5.073-16.598-5.073-16.363 0-29.676 13.312-29.676 29.676s13.312 29.676 29.676 29.676c15.689.001 26.645-12.202 26.645-29.675z"></path><path d="m367.518 287.715c-1.864-2.702-5.267-3.875-8.404-2.898-3.133.977-5.268 3.878-5.268 7.16v44.269c0 4.142 3.357 7.5 7.5 7.5s7.5-3.358 7.5-7.5v-20.209l16.263 23.55c2.094 3.024 5.752 4.353 9.115 3.303 3.463-1.082 5.701-4.276 5.701-8.211l-.415-42.857c-.04-4.117-3.39-7.427-7.498-7.427-.024 0-.05 0-.074 0-4.143.04-7.468 3.43-7.428 7.572l.2 20.645z"></path><path d="m437.28 299.394c2.941 0 5.777.865 8.199 2.502 3.436 2.32 8.095 1.417 10.414-2.016 2.318-3.432 1.416-8.094-2.016-10.413-4.913-3.319-10.651-5.073-16.598-5.073-16.363 0-29.676 13.312-29.676 29.676s13.312 29.676 29.676 29.676c15.687 0 26.643-12.203 26.643-29.676 0-4.142-3.357-7.5-7.5-7.5h-13.268c-4.143 0-7.5 3.358-7.5 7.5s3.357 7.5 7.5 7.5h4.421c-1.425 3.646-4.342 7.176-10.296 7.176-8.092 0-14.676-6.583-14.676-14.676s6.585-14.676 14.677-14.676z"></path><path d="m77.849 299.394c2.941 0 5.777.865 8.199 2.502 3.435 2.32 8.096 1.417 10.414-2.016s1.416-8.094-2.016-10.413c-4.913-3.319-10.651-5.073-16.598-5.073-16.363 0-29.676 13.312-29.676 29.676s13.312 29.676 29.676 29.676c7.57 0 14.825-3.108 19.716-8.939 2.663-3.173 2.249-7.904-.924-10.566-3.174-2.663-7.904-2.249-10.566.924-1.982 2.363-5.04 3.581-8.226 3.581-8.092 0-14.676-6.583-14.676-14.676s6.585-14.676 14.677-14.676z"></path><path d="m31.399 93.176c4.072 0 7.489-3.484 7.489-7.5 0-1.98-.8-3.91-2.189-5.31-1.044-1.012-2.391-1.766-3.84-2.05-4.59-.898-8.971 2.698-8.971 7.36 0 4.12 3.338 7.5 7.511 7.5z"></path><path d="m36.826 114.445c-1.044-1.012-2.391-1.766-3.84-2.05-4.59-.898-8.971 2.698-8.971 7.36 0 4.12 3.339 7.5 7.511 7.5 4.072 0 7.489-3.484 7.489-7.5.001-1.98-.799-3.911-2.189-5.31z"></path><path d="m36.698 148.516c-1.044-1.012-2.391-1.766-3.84-2.05-4.59-.898-8.971 2.698-8.971 7.36 0 4.12 3.339 7.5 7.511 7.5 4.072 0 7.489-3.484 7.489-7.5.001-1.98-.799-3.911-2.189-5.31z"></path><path d="m36.698 182.587c-1.044-1.012-2.391-1.766-3.84-2.05-4.59-.898-8.971 2.698-8.971 7.36 0 4.12 3.339 7.5 7.511 7.5 4.072 0 7.489-3.484 7.489-7.5.001-1.98-.799-3.91-2.189-5.31z"></path><path d="m36.698 216.665c-1.044-1.012-2.391-1.766-3.84-2.05-4.59-.898-8.971 2.698-8.971 7.36 0 4.12 3.339 7.5 7.511 7.5 4.072 0 7.489-3.484 7.489-7.5.001-1.98-.799-3.91-2.189-5.31z"></path><path d="m36.698 250.737c-1.044-1.012-2.391-1.766-3.84-2.05-4.59-.898-8.971 2.698-8.971 7.36 0 4.12 3.339 7.5 7.511 7.5 4.072 0 7.489-3.484 7.489-7.5.001-1.98-.799-3.91-2.189-5.31z"></path><path d="m36.698 284.81c-1.044-1.012-2.391-1.766-3.84-2.05-4.59-.898-8.971 2.698-8.971 7.36 0 4.12 3.339 7.5 7.511 7.5 4.072 0 7.489-3.484 7.489-7.5.001-1.979-.799-3.91-2.189-5.31z"></path><path d="m36.698 318.887c-1.044-1.012-2.391-1.766-3.84-2.05-4.59-.898-8.971 2.698-8.971 7.36 0 4.12 3.339 7.5 7.511 7.5 4.072 0 7.489-3.484 7.489-7.5.001-1.98-.799-3.91-2.189-5.31z"></path><path d="m36.698 352.96c-1.044-1.012-2.391-1.766-3.84-2.05-4.59-.898-8.971 2.698-8.971 7.36 0 4.12 3.339 7.5 7.511 7.5 4.072 0 7.489-3.484 7.489-7.5.001-1.98-.799-3.91-2.189-5.31z"></path><path d="m36.698 387.036c-1.044-1.012-2.391-1.766-3.84-2.05-4.59-.898-8.971 2.698-8.971 7.36 0 4.12 3.339 7.5 7.511 7.5 4.072 0 7.489-3.484 7.489-7.5.001-1.98-.799-3.911-2.189-5.31z"></path><path d="m23.888 426.417c0 4.12 3.339 7.5 7.511 7.5 4.072 0 7.489-3.484 7.489-7.5 0-1.98-.8-3.91-2.189-5.31-1.044-1.012-2.391-1.766-3.84-2.05-4.591-.898-8.971 2.698-8.971 7.36z"></path><path d="m482.346 78.316c-4.59-.898-8.971 2.698-8.971 7.36 0 4.12 3.338 7.5 7.511 7.5 4.072 0 7.489-3.484 7.489-7.5 0-1.98-.8-3.91-2.189-5.31-1.044-1.013-2.391-1.767-3.84-2.05z"></path><path d="m473.503 119.755c0 4.12 3.339 7.5 7.511 7.5 4.072 0 7.489-3.484 7.489-7.5 0-1.98-.8-3.91-2.189-5.31-1.044-1.012-2.391-1.766-3.84-2.05-4.59-.898-8.971 2.698-8.971 7.36z"></path><path d="m480.886 161.325c4.072 0 7.489-3.484 7.489-7.5 0-1.98-.8-3.91-2.189-5.31-1.044-1.012-2.391-1.766-3.84-2.05-4.59-.898-8.971 2.698-8.971 7.36 0 4.121 3.339 7.5 7.511 7.5z"></path><path d="m480.886 195.397c4.072 0 7.489-3.484 7.489-7.5 0-1.98-.8-3.91-2.189-5.31-1.044-1.012-2.391-1.766-3.84-2.05-4.59-.898-8.971 2.698-8.971 7.36 0 4.12 3.339 7.5 7.511 7.5z"></path><path d="m480.886 229.475c4.072 0 7.489-3.484 7.489-7.5 0-1.98-.8-3.91-2.189-5.31-1.044-1.012-2.391-1.766-3.84-2.05-4.59-.898-8.971 2.698-8.971 7.36 0 4.12 3.339 7.5 7.511 7.5z"></path><path d="m480.886 263.547c4.072 0 7.489-3.484 7.489-7.5 0-1.98-.8-3.91-2.189-5.31-1.044-1.012-2.391-1.766-3.84-2.05-4.59-.898-8.971 2.698-8.971 7.36 0 4.12 3.339 7.5 7.511 7.5z"></path><path d="m480.886 297.62c4.072 0 7.489-3.484 7.489-7.5 0-1.98-.8-3.91-2.189-5.31-1.044-1.012-2.391-1.766-3.84-2.05-4.59-.898-8.971 2.698-8.971 7.36 0 4.12 3.339 7.5 7.511 7.5z"></path><path d="m480.886 331.697c4.072 0 7.489-3.484 7.489-7.5 0-1.98-.8-3.91-2.189-5.31-1.044-1.012-2.391-1.766-3.84-2.05-4.59-.898-8.971 2.698-8.971 7.36 0 4.12 3.339 7.5 7.511 7.5z"></path><path d="m480.886 365.77c4.072 0 7.489-3.484 7.489-7.5 0-1.98-.8-3.91-2.189-5.31-1.044-1.012-2.391-1.766-3.84-2.05-4.59-.898-8.971 2.698-8.971 7.36 0 4.12 3.339 7.5 7.511 7.5z"></path><path d="m480.886 399.845c4.072 0 7.489-3.484 7.489-7.5 0-1.98-.8-3.91-2.189-5.31-1.044-1.012-2.391-1.766-3.84-2.05-4.59-.898-8.971 2.698-8.971 7.36 0 4.121 3.339 7.5 7.511 7.5z"></path><path d="m480.886 433.917c4.072 0 7.489-3.484 7.489-7.5 0-1.98-.8-3.91-2.189-5.31-1.044-1.012-2.391-1.766-3.84-2.05-4.59-.898-8.971 2.698-8.971 7.36 0 4.12 3.339 7.5 7.511 7.5z"></path></g></g></svg>