<svg id="fi_5252654" height="512" viewBox="0 0 512 512" width="512" xmlns="http://www.w3.org/2000/svg" data-name="filled outline"><path d="m224 344-19.645 58.934a28.159 28.159 0 0 0 3.285 24.526 28.162 28.162 0 0 0 23.431 12.54h24.929z" fill="#fdc9a6"></path><path d="m215.55 369.35 8.45-25.35 18.667 56z" fill="#005dbb"></path><path d="m242.667 400 13.333 40h-10.93a46.722 46.722 0 0 1 -2.62-5.31l-23.68-56.84c-1.17-2.8-2.25-5.64-3.22-8.5z" fill="#d6a27f"></path><path d="m192 240-16 16h-48v32l64 8 12-8z" fill="#fdc9a6"></path><path d="m204 288 12-8v44q0 6.018.515 12h79.485l8-80 16 2.286 8-37.486-26.636-10.654a29.985 29.985 0 0 0 -11.141-2.146h-53.8a30 30 0 0 0 -21.213 8.787l-23.21 23.213z" fill="#eae9e4"></path><path d="m320 258.286 27.749 3.964a24.75 24.75 0 0 0 21-7 24.752 24.752 0 0 0 7.249-17.5v-37.75l8-24-16-16-24 16v16l-8 32-8-3.2z" fill="#fdc9a6"></path><path d="m305.6 384-9.6-48h-79.485a140.019 140.019 0 0 0 10.254 41.846l9.231 22.154z" fill="#0a71cd"></path><path d="m193.876 71.392-32.958-1.334 12.182-13.1-13.1-12.182 17.605-3.171-3.171-17.605 28.453 16.687z" fill="#eae9e4"></path><path d="m197.734 44.545h32a0 0 0 0 1 0 0v16a16 16 0 0 1 -16 16 16 16 0 0 1 -16-16v-16a0 0 0 0 1 0 0z" fill="#bbbab6" transform="matrix(.282 -.96 .96 .282 95.453 248.581)"></path><path d="m246.4 156.8-9.6 12.8a24 24 0 0 0 4.8 33.6 24 24 0 0 0 33.6-4.8l-9.6-27.2z" fill="#fdc9a6"></path><path d="m284.8 185.6a24 24 0 0 0 -4.8-33.6 24 24 0 0 0 -33.6 4.8l19.2 14.4 9.6 27.2z" fill="#4a4b46"></path><path d="m312 416-6.4-32-69.6 16 14.453 34.687a47.633 47.633 0 0 0 43.969 29.313h65.578v-36.923z" fill="#fdc9a6"></path><path d="m392 434.462v29.538l24 16v-40z" fill="#005dbb"></path><path d="m360 427.077v36.923h32v-29.538z" fill="#eae9e4"></path><ellipse cx="389.359" cy="75.719" fill="#eae9e4" rx="28.211" ry="25.077" transform="matrix(.276 -.961 .961 .276 209.026 429.009)"></ellipse><path d="m127.008 295.938s64.662 8.062 64.992 8.062a8 8 0 0 0 4.438-1.344l11.562-7.708s.184 37.533.545 41.738a147.971 147.971 0 0 0 3 19.387l-14.779 44.327a36.16 36.16 0 0 0 34.305 47.6h17.588a55.628 55.628 0 0 0 45.763 24h95.156l21.984 14.656a8 8 0 0 0 12.438-6.656v-40a8 8 0 0 0 -6.2-7.8l-98.967-22.839-14.754-73.761 7.051-70.5s38.541 5.394 40.064 5.394a32.936 32.936 0 0 0 23.214-9.588 32.535 32.535 0 0 0 9.592-23.158v-36.448l7.59-22.768a8 8 0 0 0 -1.933-8.187l-14.892-14.892 10.375-36.094c.724.043 1.448.075 2.171.075 17.874 0 34.851-13.036 40.492-32.663 6.7-23.317-5.091-47.245-26.288-53.337a38.013 38.013 0 0 0 -31.149 4.811 46.134 46.134 0 0 0 -19.45 26.426c-5.87 20.422 2.448 41.31 18.844 50.277l-12.183 42.388-18.015 12.01a8 8 0 0 0 -3.562 6.654v15.015l-5.539 22.153-26.126-10.45a37.84 37.84 0 0 0 -14.112-2.718h-6.223l7.2-9.6a32 32 0 0 0 -51.193-38.409l-.007.009-9.6 12.8a32.035 32.035 0 0 0 -1.658 35.979 37.735 37.735 0 0 0 -19.187 10.353l-36.868 36.868h-44.687a8 8 0 0 0 -8 8v32a8 8 0 0 0 7.008 7.938zm272.992 148.58 8 1.846v18.688l-8-5.333zm-33.707-375.429a30.16 30.16 0 0 1 12.63-17.326 23.227 23.227 0 0 1 12.428-3.763 20.742 20.742 0 0 1 5.744.808c12.718 3.656 19.595 18.7 15.331 33.54s-18.083 23.937-30.8 20.281-19.598-18.702-15.333-33.54zm-32.44 162.618a8 8 0 0 0 9.908-5.767l8-32a7.977 7.977 0 0 0 .239-1.94v-11.719l12.247-8.164a7.969 7.969 0 0 0 3.565-.991l7.035 7.035-6.437 19.309a8.027 8.027 0 0 0 -.41 2.53v37.748a16.641 16.641 0 0 1 -4.9 11.844 16.841 16.841 0 0 1 -14.214 4.739l-19.269-2.753zm-102.782 200.293a20.161 20.161 0 0 1 -19.126-26.537l7.851-23.552 8.818 21.163 12.053 28.926zm3.083-57.231a131.849 131.849 0 0 1 -8.631-30.769h63.918l6.789 33.945-55.442 12.746zm133.846 62.364 16 3.693v15.174h-16zm-63.845-19.564a8 8 0 0 0 6.045 6.231l41.8 9.646v22.554h-57.578a39.631 39.631 0 0 1 -36.584-24.39l-10.808-25.937 52.339-12.032zm-38.534-262.364a15.992 15.992 0 0 1 12.779 25.595l-.631.843-4.625-13.1a8 8 0 0 0 -2.744-3.743l-11.058-8.294a16.105 16.105 0 0 1 6.279-1.301zm-22.421 19.195 4.8-6.4 10.862 8.147 7.165 20.3a15.99 15.99 0 0 1 -22.827-22.047zm-22.33 48.043a21.855 21.855 0 0 1 15.557-6.443h53.8a21.912 21.912 0 0 1 8.171 1.573l20.375 8.151-5.034 23.586-8.6-1.229a8 8 0 0 0 -9.091 7.123l-7.288 72.796h-64.7c-.041-1.336-.062-48-.062-48a8 8 0 0 0 -12.438-6.656l-2.554 1.7-8.149-32.592zm-84.87 41.557h40a8 8 0 0 0 5.657-2.343l6.009-6.009 7.205 28.823-4.832 3.221-54.039-6.754z"></path><path d="m161.794 57.369-6.734 7.241a8 8 0 0 0 5.54 13.441l31.974 1.3 14.407 4.228a23.846 23.846 0 0 0 18.263-1.966 24 24 0 0 0 -4.747-44.091l-14.408-4.229-27.608-16.193a8 8 0 0 0 -11.919 8.319l1.752 9.732-9.732 1.749a8 8 0 0 0 -4.03 13.732zm46.517-6.753 7.675 2.253a8 8 0 0 1 -4.5 15.353l-7.676-2.253zm-29.288-1.137a8 8 0 0 0 6.456-9.291l-.088-.488 8.06 4.728-5.493 18.718-9.337-.378.337-.362a8 8 0 0 0 -.41-11.306l-1.383-1.287z"></path></svg>