<svg id="fi_4318587" height="512" viewBox="0 0 512 512" width="512" xmlns="http://www.w3.org/2000/svg"><g><g><path d="m240 448h-208c-8.837 0-16-7.163-16-16v-352c0-8.837 7.163-16 16-16h208c8.837 0 16 7.163 16 16v352c0 8.837-7.163 16-16 16z" fill="#23aae6"></path></g><g><path d="m208 448h-176c-8.837 0-16-7.163-16-16v-352c0-8.837 7.163-16 16-16h176c8.837 0 16 7.163 16 16v352c0 8.837-7.163 16-16 16z" fill="#5ad7ff"></path></g><g><path d="m480 448h-208c-8.837 0-16-7.163-16-16v-352c0-8.837 7.163-16 16-16h208c8.837 0 16 7.163 16 16v352c0 8.837-7.163 16-16 16z" fill="#e1322d"></path></g><g><path d="m448 448h-176c-8.837 0-16-7.163-16-16v-352c0-8.837 7.163-16 16-16h176c8.837 0 16 7.163 16 16v352c0 8.837-7.163 16-16 16z" fill="#f04b37"></path></g><g fill="#d7e6f0"><circle cx="360" cy="160" r="32"></circle><path d="m423.589 269.47-24-72c-1.117-3.352-4.24-5.466-7.589-5.466v-.004h-.147c-.006 0-.012 0-.018 0h-63.673c-.005 0-.01 0-.015 0h-.147v.004c-3.35 0-6.472 2.114-7.589 5.466l-24 72c-1.397 4.191.868 8.722 5.06 10.119.839.28 1.692.413 2.531.413 3.35 0 6.471-2.12 7.588-5.472l16.41-49.232v38.702l-20.49 61.47c-1.727 5.18 2.129 10.53 7.589 10.53h12.901v34c0 7.732 6.268 14 14 14s14-6.268 14-14v-34h8v34c0 7.732 6.268 14 14 14s14-6.268 14-14v-34h12.901c5.461 0 9.316-5.35 7.589-10.53l-20.49-61.47v-38.702l16.411 49.232c1.117 3.353 4.239 5.472 7.588 5.472.838 0 1.692-.133 2.531-.413 4.191-1.397 6.457-5.927 5.059-10.119z"></path></g><g><g><circle cx="120" cy="160" fill="#555a6e" r="32"></circle></g><g><path d="m160 192h-80c-8.837 0-16 7.163-16 16v71.726c0 4.261 3.215 7.981 7.467 8.257 4.66.301 8.533-3.388 8.533-7.983v-51.828c0-2.089 1.527-3.955 3.607-4.153 2.386-.228 4.393 1.642 4.393 3.981v142c0 7.732 6.268 14 14 14 7.732 0 14-6.268 14-14v-78c0-2.209 1.791-4 4-4 2.209 0 4 1.791 4 4v78c0 7.732 6.268 14 14 14 7.732 0 14-6.268 14-14v-141.828c0-2.089 1.527-3.955 3.607-4.153 2.386-.227 4.393 1.643 4.393 3.981v51.726c0 4.261 3.215 7.981 7.467 8.257 4.659.302 8.533-3.388 8.533-7.983v-72c0-8.837-7.163-16-16-16z" fill="#555a6e"></path></g></g><g><g><circle cx="32" cy="256" fill="#faa019" r="16"></circle></g><g><path d="m16 256h12c2.209 0 4-1.791 4-4v-12c-8.837 0-16 7.163-16 16z" fill="#ffd205"></path></g></g><g><g><circle cx="273.333" cy="256" fill="#faa019" r="16"></circle></g><g><path d="m257.333 256h12c2.209 0 4-1.791 4-4v-12c-8.836 0-16 7.163-16 16z" fill="#ffd205"></path></g></g></g></svg>